<svg width="107" height="40" viewBox="0 0 107 40" fill="none" xmlns="http://www.w3.org/2000/svg">
<circle cx="20" cy="20" r="20" fill="white"/>
<path d="M8.33331 9.15454L31.6666 9.15461V14.238H8.33331V9.15454ZM16.7033 9.15461L22.9561 9.15454V36.9654H16.7033V9.15461Z" fill="#151515"/>
<path d="M44.7102 14.9901V12.4545H56.6562V14.9901H52.2031V27H49.1634V14.9901H44.7102ZM58.5668 27V16.0909H61.5923V27H58.5668ZM60.0866 14.6847C59.6368 14.6847 59.2509 14.5355 58.929 14.2372C58.6117 13.9342 58.4531 13.572 58.4531 13.1506C58.4531 12.7339 58.6117 12.3764 58.929 12.0781C59.2509 11.7751 59.6368 11.6236 60.0866 11.6236C60.5365 11.6236 60.92 11.7751 61.2372 12.0781C61.5592 12.3764 61.7202 12.7339 61.7202 13.1506C61.7202 13.572 61.5592 13.9342 61.2372 14.2372C60.92 14.5355 60.5365 14.6847 60.0866 14.6847ZM64.016 27V16.0909H66.8995V18.0156H67.0273C67.2546 17.3764 67.6334 16.8722 68.1637 16.5028C68.694 16.1335 69.3285 15.9489 70.0671 15.9489C70.8152 15.9489 71.4521 16.1359 71.9776 16.5099C72.5032 16.8793 72.8536 17.3812 73.0288 18.0156H73.1424C73.3649 17.3906 73.7674 16.8911 74.3498 16.517C74.9369 16.1383 75.6306 15.9489 76.4308 15.9489C77.4487 15.9489 78.275 16.2732 78.9094 16.9219C79.5487 17.5658 79.8683 18.4796 79.8683 19.6634V27H76.8498V20.2599C76.8498 19.6539 76.6888 19.1993 76.3668 18.8963C76.0449 18.5933 75.6424 18.4418 75.1594 18.4418C74.6102 18.4418 74.1817 18.617 73.8739 18.9673C73.5662 19.313 73.4123 19.7699 73.4123 20.3381V27H70.479V20.196C70.479 19.661 70.3252 19.2348 70.0174 18.9176C69.7144 18.6004 69.3143 18.4418 68.8171 18.4418C68.4809 18.4418 68.1779 18.527 67.908 18.6974C67.6429 18.8632 67.4322 19.0975 67.2759 19.4006C67.1197 19.6989 67.0415 20.0492 67.0415 20.4517V27H64.016ZM82.315 27V12.4545H85.3406V17.9233H85.4329C85.5655 17.6297 85.7572 17.3314 86.0082 17.0284C86.2638 16.7206 86.5953 16.465 87.0025 16.2614C87.4144 16.053 87.9258 15.9489 88.5366 15.9489C89.332 15.9489 90.0659 16.1572 90.7383 16.5739C91.4106 16.9858 91.948 17.6084 92.3505 18.4418C92.753 19.2704 92.9542 20.3097 92.9542 21.5597C92.9542 22.7765 92.7577 23.804 92.3647 24.642C91.9764 25.4754 91.4461 26.1075 90.7738 26.5384C90.1062 26.9645 89.3581 27.1776 88.5295 27.1776C87.9424 27.1776 87.4428 27.0805 87.0309 26.8864C86.6237 26.6922 86.2899 26.4484 86.0295 26.1548C85.7691 25.8565 85.5702 25.5559 85.4329 25.2528H85.2979V27H82.315ZM85.2766 21.5455C85.2766 22.1941 85.3666 22.7599 85.5465 23.2429C85.7264 23.7259 85.9869 24.1023 86.3278 24.3722C86.6687 24.6373 87.083 24.7699 87.5707 24.7699C88.0631 24.7699 88.4798 24.6349 88.8207 24.3651C89.1616 24.0904 89.4196 23.7116 89.5948 23.2287C89.7747 22.741 89.8647 22.1799 89.8647 21.5455C89.8647 20.9157 89.7771 20.3617 89.6019 19.8835C89.4267 19.4053 89.1687 19.0312 88.8278 18.7614C88.4869 18.4915 88.0678 18.3565 87.5707 18.3565C87.0782 18.3565 86.6616 18.4867 86.3207 18.7472C85.9845 19.0076 85.7264 19.3769 85.5465 19.8551C85.3666 20.3333 85.2766 20.8968 85.2766 21.5455ZM101.969 22.3551V16.0909H104.994V27H102.089V25.0185H101.976C101.73 25.6577 101.32 26.1714 100.747 26.5597C100.179 26.9479 99.4853 27.142 98.6662 27.142C97.937 27.142 97.2955 26.9763 96.7415 26.6449C96.1875 26.3134 95.7543 25.8423 95.4418 25.2315C95.134 24.6207 94.9777 23.8892 94.973 23.0369V16.0909H97.9986V22.4972C98.0033 23.1411 98.1761 23.6501 98.517 24.0241C98.858 24.3982 99.3149 24.5852 99.8878 24.5852C100.252 24.5852 100.593 24.5024 100.911 24.3366C101.228 24.1662 101.483 23.9152 101.678 23.5838C101.876 23.2524 101.973 22.8428 101.969 22.3551Z" fill="white"/>
</svg>
